<svg xmlns="http://www.w3.org/2000/svg" version="1.1" xmlns:xlink="http://www.w3.org/1999/xlink" width="1000" height="1000"><g clip-path="url(#SvgjsClipPath1090)"><rect width="1000" height="1000" fill="#ffffff"></rect><g transform="matrix(0.7804878048780488,0,0,0.7804878048780488,100,100.39024390243901)"><svg xmlns="http://www.w3.org/2000/svg" version="1.1" xmlns:xlink="http://www.w3.org/1999/xlink" width="1025" height="1024"><svg width="1025" height="1024" viewBox="0 0 1025 1024" fill="none" xmlns="http://www.w3.org/2000/svg">
<path d="M636.162 159.308C680.154 159.308 715.816 123.646 715.816 79.6542C715.816 35.6624 680.154 0 636.162 0C592.17 0 556.508 35.6624 556.508 79.6542C556.508 123.646 592.17 159.308 636.162 159.308Z" fill="black"></path>
<path d="M387.242 159.308C431.234 159.308 466.897 123.646 466.897 79.6542C466.897 35.6624 431.234 0 387.242 0C343.25 0 307.588 35.6624 307.588 79.6542C307.588 123.646 343.25 159.308 387.242 159.308Z" fill="black"></path>
<path d="M764.012 461.175C709.363 364.581 574.812 301.415 447.76 296.648H444.199C440.638 349.089 439.452 399.199 439.452 448.065V609.016C542.765 605.442 654.764 575.646 706.987 508.851V765.258C654.764 698.463 542.765 663.898 439.452 660.324V824.854C439.452 889.265 443.013 954.87 469.124 1024H257.804C282.729 954.815 289.85 889.265 289.85 824.854V448.065C289.85 383.651 283.916 318.046 257.804 248.919H766.387L764.012 461.175Z" fill="black"></path>
</svg></svg></g></g><defs><clipPath id="SvgjsClipPath1090"><rect width="1000" height="1000" x="0" y="0" rx="0" ry="0"></rect></clipPath></defs></svg>